<svg width="83" height="83" viewBox="0 0 83 83" fill="none" xmlns="http://www.w3.org/2000/svg">
<g clip-path="url(#clip0_1_1274)">
<path d="M61.9418 0.275658C61.7148 0.470192 61.1798 1.76706 60.3531 4.0528C59.6884 5.96569 59.0886 7.58679 59.0238 7.63542C58.9752 7.70026 58.2295 7.57057 57.3865 7.34362C56.2193 7.03561 55.2791 6.90592 53.5445 6.85729C49.7673 6.7114 47.1088 7.3112 43.5099 9.12682C41.0783 10.3426 39.9435 10.6993 38.0955 10.8128C36.0205 10.9425 34.4804 10.5372 31.7084 9.15925C28.1257 7.39226 25.7914 6.80866 22.3709 6.80866C19.388 6.80866 16.924 7.35984 14.233 8.62429C12.6929 9.33757 12.3363 9.79147 12.6281 10.5534C13.0009 11.5423 13.6007 11.5585 15.6595 10.6344C17.6535 9.74284 19.2421 9.3862 21.6089 9.28893C25.0457 9.14304 27.299 9.66179 30.833 11.4612C35.7287 13.9091 39.7652 13.8928 44.4664 11.3639C47.5789 9.69421 49.9295 9.15925 53.4148 9.28893C55.5709 9.36999 57.2244 9.62936 57.2244 9.85632C57.2244 9.92116 56.3328 10.4399 55.2304 11.0235C53.0582 12.1745 52.5232 12.596 52.5232 13.1633C52.5232 13.8604 52.9933 14.2333 55.7654 15.7247C57.273 16.5352 58.5213 17.2161 58.5213 17.2323C58.5375 17.5889 61.65 25.8889 61.8607 26.1159C62.2336 26.5374 63.0765 26.5212 63.4818 26.0835C63.6439 25.9051 64.4382 23.895 65.2488 21.6092C66.0593 19.3397 66.7888 17.4755 66.8699 17.4592C67.1131 17.443 68.0209 19.0317 68.4748 20.2475C69.1232 21.9821 69.415 23.3438 69.4474 24.7217L69.4636 26.0024L68.7666 26.3915C67.5508 27.0723 67.4859 28.0936 68.6369 28.8069C68.9935 29.0339 69.3177 29.2284 69.334 29.2446C69.4636 29.3419 68.7828 32.9569 68.2478 35.1292C67.1131 39.7655 65.5082 44.3694 61.6824 53.9825C56.965 65.8975 55.8951 69.1073 54.6955 75.1864C54.1281 78.0395 53.7066 79.1905 52.9771 79.8714C52.1828 80.6171 51.1129 80.763 50.1078 80.2442C48.3732 79.3688 47.3357 76.8885 44.4988 66.7891C42.975 61.3909 42.6507 60.629 41.289 59.3969C40.1381 58.3756 39.0033 57.9866 37.2849 58.0676C35.68 58.1487 34.6101 58.6026 33.5726 59.6401C32.4703 60.7424 32.1461 61.5206 30.5574 67.0809C28.0123 76.0131 27.2504 78.0395 25.9859 79.4499C24.916 80.6333 23.7974 80.8602 22.5978 80.1631C21.7062 79.6444 21.0254 78.2989 20.6687 76.3536C19.8095 71.7497 19.0314 68.7831 17.5076 64.5358C16.9726 63.0606 16.5836 61.8124 16.6322 61.7475C16.6646 61.6827 17.9615 60.9532 19.5015 60.1264C21.0254 59.2997 22.4519 58.4567 22.6627 58.246C23.1814 57.7272 23.1328 57.0301 22.5654 56.5438C22.306 56.3493 20.8146 55.4739 19.2421 54.6309L16.389 53.0909L14.6707 48.2276C13.7142 45.5528 12.8712 43.2833 12.774 43.1698C12.6929 43.0725 12.4011 42.9266 12.1418 42.878C11.4123 42.7159 10.9421 43.1212 10.5207 44.2559C10.3261 44.8071 10.1154 45.1799 10.0505 45.1151C9.8398 44.8719 8.31597 40.3005 7.57027 37.6905C6.07887 32.4382 5.59254 29.3094 5.70601 25.4999C5.78707 23.3438 5.86812 22.7116 6.22476 21.4958C6.80836 19.5667 7.53785 18.0266 8.64019 16.4055C9.6939 14.8655 9.80738 14.3143 9.14273 13.7956C8.28355 13.1147 7.79722 13.3579 6.66246 14.9952C5.51148 16.6649 4.29566 19.2587 3.77691 21.1878C3.35543 22.6792 3.33922 22.971 3.33922 26.3428C3.33922 30.3469 3.4689 31.4169 4.55504 35.8587C5.13863 38.2417 6.98668 43.9966 8.36461 47.7089L8.83472 48.9571L8.2025 50.7889C7.84586 51.7778 7.50543 52.718 7.44058 52.8639C7.35953 53.0098 6.11129 53.7717 4.66851 54.5661C1.16695 56.4465 0.842731 56.6573 0.777887 57.095C0.631989 58.0514 0.842731 58.246 4.18218 60.0616L7.37574 61.8124L9.07789 66.6108C10.0181 69.2532 10.9097 71.5389 11.0556 71.6848C11.4447 72.0739 12.3525 72.0577 12.7091 71.6686C12.855 71.5065 13.4224 70.161 13.9412 68.7182C14.4599 67.2592 14.9625 65.8813 15.0435 65.6544C15.3191 64.9249 17.2158 71.1985 17.9939 75.3809C18.8207 79.8714 20.1175 82.0112 22.4681 82.7569C25.1916 83.6161 27.6232 82.1247 29.3416 78.5583C30.2818 76.5967 31.1572 73.9381 32.9242 67.6807C33.6537 65.087 34.3507 62.7526 34.4804 62.4932C34.8046 61.8448 35.6314 60.9856 36.2312 60.6776C37.3822 60.0778 39.2627 60.5479 40.1056 61.6503C40.7216 62.4446 40.8838 62.9147 42.3752 68.1995C44.2556 74.8298 44.7906 76.4671 45.8119 78.5907C47.5465 82.1895 49.8322 83.5837 52.6367 82.7569C53.7715 82.4165 54.7117 81.687 55.4412 80.5522C56.2355 79.304 56.5922 78.1854 57.2244 74.9756C58.1808 70.0151 59.267 66.7729 63.7898 55.2794C68.88 42.3755 70.3877 37.7553 71.409 32.0491C71.5711 31.1737 71.7494 30.5091 71.8304 30.5901C71.8953 30.6549 72.3978 32.0005 72.949 33.5567C73.5326 35.2102 74.0838 36.5071 74.2783 36.6692C74.6998 37.0421 75.4617 37.0421 75.8345 36.6692C75.9966 36.5071 76.6613 34.8536 77.3259 33.0055L78.5093 29.6499L78.1851 29.2122C78.023 28.9852 77.6664 28.7258 77.4232 28.6448C76.6775 28.4016 76.1912 28.9042 75.6238 30.5415C75.3644 31.3034 75.0888 31.9356 75.0402 31.9356C74.9916 31.9356 74.7484 31.3358 74.489 30.5901C74.2459 29.8606 73.9541 29.1635 73.873 29.0501C73.7757 28.9366 73.2408 28.5799 72.6734 28.2719C72.1222 27.9477 71.6521 27.6721 71.6521 27.6397C71.6521 27.6073 72.0898 27.3479 72.6086 27.0561C73.1435 26.7805 73.6785 26.4239 73.8082 26.278C73.9379 26.1321 74.2459 25.4188 74.5052 24.6731C74.7646 23.9436 75.0078 23.3438 75.0564 23.3438C75.105 23.3438 75.3482 23.9598 75.6076 24.7217C75.867 25.4675 76.2236 26.2294 76.4181 26.3915C76.9855 26.894 80.714 28.8555 81.1031 28.8555C81.5732 28.8393 81.9785 28.5151 82.173 27.9964C82.481 27.202 82.173 26.8454 80.3736 25.8727C79.4496 25.3864 78.5742 24.8839 78.4121 24.7704C78.2662 24.6569 77.6664 23.2628 77.099 21.6741C76.4992 20.0206 75.9318 18.6913 75.7697 18.5616C75.332 18.2374 74.6187 18.2698 74.2783 18.6102C74.1162 18.7723 73.5488 20.134 73.0138 21.6092C72.4951 23.1007 72.0088 24.3165 71.9439 24.3165C71.8629 24.3165 71.8142 24.0733 71.8142 23.7815C71.798 22.3387 70.9064 19.3883 69.8041 17.2323C69.4799 16.5839 69.2205 16.0165 69.2205 15.9841C69.2205 15.9354 69.9175 15.5301 70.7605 15.06C72.3654 14.2009 72.7869 13.8118 72.7869 13.1633C72.7869 12.5798 72.2357 12.1745 69.4474 10.6507L66.8213 9.2403L65.9783 6.84109C65.5082 5.528 64.8111 3.58269 64.422 2.51276C63.7088 0.518822 63.3359 6.86646e-05 62.655 6.86646e-05C62.4443 6.86646e-05 62.1363 0.129761 61.9418 0.275658ZM63.725 7.78132C64.2599 9.33757 64.7949 10.7155 64.8759 10.8128C64.9732 10.9262 65.9296 11.5098 67.0158 12.0934C68.0857 12.6932 68.9935 13.1796 69.0097 13.1958C69.0259 13.212 68.1506 13.7145 67.0482 14.3143C65.9459 14.9141 64.9732 15.4977 64.8759 15.6112C64.7949 15.7085 64.2599 17.1026 63.7088 18.6913C63.1414 20.2637 62.6713 21.5444 62.655 21.5282C62.6226 21.4958 62.1525 20.1989 61.6013 18.6426C61.0502 17.0864 60.5152 15.7085 60.4179 15.595C60.3369 15.4815 59.5263 14.9952 58.6185 14.5089C56.041 13.1309 56.0734 13.3417 58.2132 12.1745C59.2345 11.6071 60.1748 11.0559 60.3207 10.9262C60.4666 10.7966 61.0502 9.3862 61.6175 7.78132C62.1849 6.17644 62.655 4.89577 62.6875 4.91198C62.7037 4.9444 63.1738 6.22507 63.725 7.78132ZM13.1306 51.1456C13.7628 52.9612 14.3789 54.5661 14.4923 54.6958C14.5896 54.8255 15.7082 55.4901 16.9888 56.171L19.307 57.4354L18.6261 57.8083C18.2695 58.019 17.1996 58.6026 16.2918 59.0889C15.3677 59.5915 14.5572 60.0778 14.4599 60.1913C14.3789 60.2885 13.7791 61.8934 13.1144 63.7415C12.466 65.5895 11.8986 67.0809 11.8662 67.0323C11.8337 66.9999 11.2339 65.4274 10.5531 63.5307L9.32105 60.094L7.21363 58.943C6.04644 58.3108 4.96031 57.711 4.7982 57.6137C4.53883 57.4516 4.7982 57.2571 6.75972 56.1872C8.00797 55.5063 9.14273 54.8255 9.27242 54.6633C9.40211 54.5174 9.96949 53.0747 10.5369 51.4698C11.8662 47.7089 11.8175 47.8223 11.8824 47.8223C11.9148 47.8223 12.4822 49.3137 13.1306 51.1456Z" fill="#004946" stroke="#004946"/>
<path d="M20.8308 13.5685C18.7558 13.8603 16.0486 15.0599 14.4113 16.4378C11.7527 18.6587 10.1154 21.8361 9.93706 25.1431C9.856 26.5859 9.87221 26.7318 10.1964 27.056C10.6179 27.4775 11.3474 27.4937 11.8175 27.1046C12.1093 26.8777 12.2066 26.5535 12.3201 25.4025C12.5794 22.825 13.5197 20.7824 15.2218 19.0478C16.9888 17.2484 19.3232 16.146 21.7873 15.9353C23.3273 15.8056 23.7326 15.5462 23.7326 14.6709C23.7326 13.5847 22.922 13.2767 20.8308 13.5685Z" fill="#004946"/>
</g>
<defs>
<clipPath id="clip0_1_1274">
<rect width="83" height="83" fill="white"/>
</clipPath>
</defs>
</svg>
